<svg id="Layer_1" data-name="Layer 1" xmlns="http://www.w3.org/2000/svg" viewBox="0 0 2946.49 299.33"><defs><style>.cls-1{fill:#924992;}.cls-2{fill:#c269c2;}</style></defs><title>color_logo_transparent</title><g id="main_text" data-name="main text"><path class="cls-1" d="M558.07,249.92H520.19V116.84l-62.8,105.91L397.08,115.84V249.92H359.2V50.55h43.61l55.32,98.94L516,50.55h42.12V249.92Zm238.49,0H754.2L735.76,210H639.06l-18.69,39.87H578l94.2-199.37h30.15Zm-76-72-33.14-71.77L653.77,177.9Zm246,72H923.91l-14.2-45.36a72.78,72.78,0,0,0-5.61-13.71,42.3,42.3,0,0,0-8.1-10.72,33.42,33.42,0,0,0-11.34-7,44.07,44.07,0,0,0-15.58-2.49H854.63v79.25H816.5V50.8l78.75-.25a63.48,63.48,0,0,1,23.67,4.36A57.33,57.33,0,0,1,937.87,67a55.46,55.46,0,0,1,12.46,18.19,57,57,0,0,1,4.49,22.68,53.24,53.24,0,0,1-2.74,16.95,57,57,0,0,1-7.73,15.2,59.47,59.47,0,0,1-11.84,12.34,50,50,0,0,1-15.08,8.1,38.24,38.24,0,0,1,15.45,10.09,49.24,49.24,0,0,1,9.47,15.82q1.74,4.24,3.24,8.47l3.12,8.85q1.62,4.61,3.49,10t4.11,11.84q2.74,8.22,5.11,14.08a70.58,70.58,0,0,0,5.11,10.34ZM915.94,110.61a30.25,30.25,0,0,0-2.62-12.71,31.64,31.64,0,0,0-7.1-10,32.18,32.18,0,0,0-10.59-6.6A35.87,35.87,0,0,0,882.54,79H854.63V141h27.91a39.64,39.64,0,0,0,13.08-2.12,31.07,31.07,0,0,0,10.59-6.11,28.9,28.9,0,0,0,9.72-22.18ZM1172.62,214a110.86,110.86,0,0,1-36.26,28.91q-21.31,10.72-47,10.72a108.33,108.33,0,0,1-75.51-30.15,103.31,103.31,0,0,1-22.8-32.77,98.71,98.71,0,0,1-8.35-40.5,98.72,98.72,0,0,1,8.35-40.5,104.4,104.4,0,0,1,56.7-55,108.57,108.57,0,0,1,41.62-8q25.67,0,47,10.72a108.72,108.72,0,0,1,35.51,27.91l-26.67,27.41a70,70,0,0,0-23.8-21.31,67.28,67.28,0,0,0-58.32-2.74,70.19,70.19,0,0,0-21.56,14.45A68.39,68.39,0,0,0,1027,124.44a64.16,64.16,0,0,0,0,51.34A68.4,68.4,0,0,0,1041.54,197a70.19,70.19,0,0,0,21.56,14.45,65.28,65.28,0,0,0,26.29,5.36q18.44,0,32.65-8.35a74.13,74.13,0,0,0,23.67-22.06Zm175.69,35.89h-38.63V161.7h-78.5v88.22h-38.63V50.8h38.63v79h78.5v-79h38.63Zm247.46-166h-93.7V130.3h92.46v31.4h-92.46v88.22H1464.2V50.8h131.58Zm229,66.29a99,99,0,0,1-8.35,40.37,102.92,102.92,0,0,1-22.8,32.9A108.9,108.9,0,0,1,1760,245.56a107.48,107.48,0,0,1-81.87,0,108.51,108.51,0,0,1-33.77-22.06,103.31,103.31,0,0,1-22.8-32.77,102.7,102.7,0,0,1,0-81.12,102.92,102.92,0,0,1,22.8-32.9,107.51,107.51,0,0,1,74.76-29.91,105.48,105.48,0,0,1,97.32,62.93,98.71,98.71,0,0,1,8.35,40.5Zm-38.88,0a64.21,64.21,0,0,0-5.23-25.79,67.69,67.69,0,0,0-14.33-21.18,69.05,69.05,0,0,0-21.31-14.45,66,66,0,0,0-52.08,0,69.05,69.05,0,0,0-21.31,14.45,67.69,67.69,0,0,0-14.33,21.18,65.87,65.87,0,0,0,0,51.46,67.3,67.3,0,0,0,14.33,21.31A69.05,69.05,0,0,0,1693,211.66a66,66,0,0,0,52.08,0,69.05,69.05,0,0,0,21.31-14.45,67.3,67.3,0,0,0,14.33-21.31,64.49,64.49,0,0,0,5.23-25.67Zm218.81,99.68h-42.61l-14.2-45.36a72.77,72.77,0,0,0-5.61-13.71,42.3,42.3,0,0,0-8.1-10.72,33.42,33.42,0,0,0-11.34-7,44.08,44.08,0,0,0-15.58-2.49h-14.45v79.25h-38.13V50.8l78.75-.25a63.48,63.48,0,0,1,23.67,4.36A57.33,57.33,0,0,1,1976.07,67a55.46,55.46,0,0,1,12.46,18.19,57,57,0,0,1,4.49,22.68,53.24,53.24,0,0,1-2.74,16.95,57,57,0,0,1-7.73,15.2,59.47,59.47,0,0,1-11.84,12.34,50,50,0,0,1-15.08,8.1,38.24,38.24,0,0,1,15.45,10.09,49.23,49.23,0,0,1,9.47,15.82q1.74,4.24,3.24,8.47l3.12,8.85q1.62,4.61,3.49,10t4.11,11.84q2.74,8.22,5.11,14.08a70.59,70.59,0,0,0,5.11,10.34Zm-50.59-139.31a30.24,30.24,0,0,0-2.62-12.71,31.64,31.64,0,0,0-7.1-10,32.18,32.18,0,0,0-10.59-6.6A35.87,35.87,0,0,0,1920.75,79h-27.91V141h27.91a39.64,39.64,0,0,0,13.08-2.12,31.07,31.07,0,0,0,10.59-6.11,28.9,28.9,0,0,0,9.72-22.18Zm351.63,139.31H2267.9V116.84l-62.8,105.91-60.31-106.91V249.92h-37.88V50.55h43.61l55.32,98.94,57.82-98.94h42.12V249.92Zm241.48-99.68a99,99,0,0,1-8.35,40.37,102.92,102.92,0,0,1-22.8,32.9,108.91,108.91,0,0,1-33.64,22.06,107.48,107.48,0,0,1-81.87,0,108.51,108.51,0,0,1-33.77-22.06,103.3,103.3,0,0,1-22.8-32.77,102.7,102.7,0,0,1,0-81.12,102.93,102.93,0,0,1,22.8-32.9,107.51,107.51,0,0,1,74.76-29.91,105.48,105.48,0,0,1,97.32,62.93,98.71,98.71,0,0,1,8.35,40.5Zm-38.88,0a64.21,64.21,0,0,0-5.23-25.79,67.69,67.69,0,0,0-14.33-21.18,69,69,0,0,0-21.31-14.45,66,66,0,0,0-52.08,0,69.05,69.05,0,0,0-21.31,14.45,67.69,67.69,0,0,0-14.33,21.18,65.87,65.87,0,0,0,0,51.46,67.3,67.3,0,0,0,14.33,21.31,69.05,69.05,0,0,0,21.31,14.45,66,66,0,0,0,52.08,0,69.06,69.06,0,0,0,21.31-14.45,67.29,67.29,0,0,0,14.33-21.31,64.49,64.49,0,0,0,5.23-25.67ZM2776,249.92h-37.88V116.84l-62.8,105.91L2615,115.84V249.92h-37.88V50.55h43.61l55.32,98.94,57.82-98.94H2776V249.92Zm170.46-52.33a48.51,48.51,0,0,1-4.86,21.31,56.24,56.24,0,0,1-13.58,17.82A67.4,67.4,0,0,1,2907.37,249a72.89,72.89,0,0,1-26.42,4.61,164,164,0,0,1-23.3-1.5,100.79,100.79,0,0,1-19.44-4.73,93.34,93.34,0,0,1-17.44-8.35,165.68,165.68,0,0,1-17.32-12.34l27.41-27.66q12,10,23.43,14.08a73.3,73.3,0,0,0,24.92,4.11,32.5,32.5,0,0,0,10.34-1.62,29.14,29.14,0,0,0,8.47-4.36,21.24,21.24,0,0,0,5.73-6.48,16.39,16.39,0,0,0,2.12-8.22,19.81,19.81,0,0,0-1.74-8.47,20.47,20.47,0,0,0-6.23-7.23,63,63,0,0,0-12.46-7.1q-8-3.61-20.44-8.1a191.46,191.46,0,0,1-21.06-9.1,73.92,73.92,0,0,1-17.69-12.34A56.66,56.66,0,0,1,2814,127.31q-4.61-9.72-4.61-22.93A53.73,53.73,0,0,1,2814.54,81a55.15,55.15,0,0,1,14-18.32,65,65,0,0,1,20.68-11.84,75.26,75.26,0,0,1,25.54-4.24q22.93,0,38.63,6A84.17,84.17,0,0,1,2941.26,70l-26.91,27.16a53.79,53.79,0,0,0-16.7-11.09q-9.22-3.86-21.68-3.86a31.13,31.13,0,0,0-10.59,1.74,27.83,27.83,0,0,0-8.35,4.61,22.89,22.89,0,0,0-5.61,6.73,16.61,16.61,0,0,0-2.12,8.1,18.47,18.47,0,0,0,2,8.6,23.07,23.07,0,0,0,6.73,7.48,67.49,67.49,0,0,0,12.59,7.23q7.85,3.61,19.56,7.85A149.57,149.57,0,0,1,2915.84,146a71.7,71.7,0,0,1,17.44,13.71,48.84,48.84,0,0,1,10,16.82,64,64,0,0,1,3.24,21.06Z"/></g><g id="SvgjsG2163"><path class="cls-2" d="M159,0a37.42,37.42,0,1,0,37.42,37.42A37.41,37.41,0,0,0,159,0Zm0,49.89a12.47,12.47,0,1,1,12.47-12.47A12.48,12.48,0,0,1,159,49.89Z"/><path class="cls-2" d="M265,112.25A24.94,24.94,0,1,0,290,137.2,24.94,24.94,0,0,0,265,112.25Z"/><path class="cls-2" d="M190.2,99.78H127.84L102.9,249.45h21.83v49.89h24.95V249.45h18.71v49.89h24.95V249.45h21.83ZM132.35,224.5,149,124.72h20.1L185.7,224.5Z"/><path class="cls-2" d="M49.89,0A37.42,37.42,0,1,0,87.3,37.42,37.41,37.41,0,0,0,49.89,0Zm0,49.89A12.47,12.47,0,1,1,62.36,37.42,12.48,12.48,0,0,1,49.89,49.89Z"/><path class="cls-2" d="M230.74,174.61V299.33h24.94V261.92h18.71v37.42h24.95V174.61ZM274.39,237H255.68V199.56h18.71Z"/><path class="cls-2" d="M0,99.78,15.59,224.5v74.83H40.53V249.45H59v49.89H84V226.06L99.78,99.78ZM59,224.5H40.73L28.25,124.72H71.52Z"/></g></svg>